<mxfile host="app.diagrams.net" modified="2021-05-10T04:01:12.236Z" agent="5.0 (Macintosh; Intel Mac OS X 10_15_7) AppleWebKit/605.1.15 (KHTML, like Gecko) Version/14.0.3 Safari/605.1.15" etag="0KwD_mJ5lAD8OkInFn8y" version="14.6.11" type="github">
  <diagram name="Page-1" id="74e2e168-ea6b-b213-b513-2b3c1d86103e">
    <mxGraphModel dx="647" dy="1268" grid="1" gridSize="10" guides="1" tooltips="1" connect="1" arrows="1" fold="1" page="1" pageScale="1" pageWidth="1100" pageHeight="850" background="#ffffff" math="0" shadow="0">
      <root>
        <mxCell id="0" />
        <mxCell id="1" parent="0" />
        <mxCell id="lr_rn5ziXYZGtuX2gbdQ-8" value="" style="edgeStyle=orthogonalEdgeStyle;rounded=0;orthogonalLoop=1;jettySize=auto;html=1;endArrow=none;endFill=0;shape=link;exitX=1;exitY=0.5;exitDx=0;exitDy=0;" edge="1" parent="1" source="lr_rn5ziXYZGtuX2gbdQ-32" target="lr_rn5ziXYZGtuX2gbdQ-7">
          <mxGeometry relative="1" as="geometry">
            <mxPoint x="579.9361430395913" y="-528.9655172413793" as="sourcePoint" />
          </mxGeometry>
        </mxCell>
        <mxCell id="lr_rn5ziXYZGtuX2gbdQ-10" value="" style="edgeStyle=orthogonalEdgeStyle;rounded=0;orthogonalLoop=1;jettySize=auto;html=1;endArrow=none;endFill=0;" edge="1" parent="1" target="lr_rn5ziXYZGtuX2gbdQ-9">
          <mxGeometry relative="1" as="geometry">
            <mxPoint x="530.0638569604087" y="-528.9655172413793" as="sourcePoint" />
          </mxGeometry>
        </mxCell>
        <mxCell id="lr_rn5ziXYZGtuX2gbdQ-6" style="edgeStyle=orthogonalEdgeStyle;rounded=0;orthogonalLoop=1;jettySize=auto;html=1;exitX=0.5;exitY=1;exitDx=0;exitDy=0;endArrow=none;endFill=0;" edge="1" parent="1">
          <mxGeometry relative="1" as="geometry">
            <mxPoint x="555" y="-515.5" as="sourcePoint" />
            <mxPoint x="555" y="-515.5" as="targetPoint" />
          </mxGeometry>
        </mxCell>
        <mxCell id="lr_rn5ziXYZGtuX2gbdQ-33" value="" style="edgeStyle=orthogonalEdgeStyle;shape=link;rounded=0;orthogonalLoop=1;jettySize=auto;html=1;endArrow=none;endFill=0;" edge="1" parent="1" source="lr_rn5ziXYZGtuX2gbdQ-7" target="lr_rn5ziXYZGtuX2gbdQ-17">
          <mxGeometry relative="1" as="geometry" />
        </mxCell>
        <mxCell id="lr_rn5ziXYZGtuX2gbdQ-7" value="alcpt_group_member" style="whiteSpace=wrap;html=1;rounded=0;shadow=0;fontFamily=Verdana;fontSize=8;strokeWidth=1;" vertex="1" parent="1">
          <mxGeometry x="610" y="-536.25" width="100" height="14.5" as="geometry" />
        </mxCell>
        <mxCell id="lr_rn5ziXYZGtuX2gbdQ-9" value="alcpt_user" style="whiteSpace=wrap;html=1;rounded=0;shadow=0;fontFamily=Verdana;fontSize=8;strokeWidth=1;" vertex="1" parent="1">
          <mxGeometry x="430" y="-540" width="70" height="22" as="geometry" />
        </mxCell>
        <mxCell id="lr_rn5ziXYZGtuX2gbdQ-12" value="" style="endArrow=none;html=1;entryX=0;entryY=0.5;entryDx=0;entryDy=0;" edge="1" parent="1" target="lr_rn5ziXYZGtuX2gbdQ-30">
          <mxGeometry width="50" height="50" relative="1" as="geometry">
            <mxPoint x="494" y="-540" as="sourcePoint" />
            <mxPoint x="530" y="-565" as="targetPoint" />
            <Array as="points">
              <mxPoint x="494" y="-561" />
            </Array>
          </mxGeometry>
        </mxCell>
        <mxCell id="lr_rn5ziXYZGtuX2gbdQ-18" value="" style="edgeStyle=orthogonalEdgeStyle;rounded=0;orthogonalLoop=1;jettySize=auto;html=1;endArrow=none;endFill=0;" edge="1" parent="1" source="lr_rn5ziXYZGtuX2gbdQ-15" target="lr_rn5ziXYZGtuX2gbdQ-17">
          <mxGeometry relative="1" as="geometry" />
        </mxCell>
        <mxCell id="lr_rn5ziXYZGtuX2gbdQ-15" value="alcpt_group" style="whiteSpace=wrap;html=1;rounded=0;shadow=0;fontFamily=Verdana;fontSize=8;strokeWidth=1;" vertex="1" parent="1">
          <mxGeometry x="620" y="-569.25" width="80" height="15.5" as="geometry" />
        </mxCell>
        <mxCell id="lr_rn5ziXYZGtuX2gbdQ-16" value="" style="edgeStyle=orthogonalEdgeStyle;shape=link;rounded=0;orthogonalLoop=1;jettySize=auto;html=1;endArrow=none;endFill=0;exitX=1;exitY=0.5;exitDx=0;exitDy=0;" edge="1" parent="1" source="lr_rn5ziXYZGtuX2gbdQ-30" target="lr_rn5ziXYZGtuX2gbdQ-15">
          <mxGeometry relative="1" as="geometry">
            <mxPoint x="579.9425287356321" y="-564.9655172413793" as="sourcePoint" />
            <mxPoint x="700" y="-565" as="targetPoint" />
          </mxGeometry>
        </mxCell>
        <mxCell id="lr_rn5ziXYZGtuX2gbdQ-17" value="include" style="rhombus;whiteSpace=wrap;html=1;rounded=0;shadow=0;fontFamily=Verdana;fontSize=8;strokeWidth=1;" vertex="1" parent="1">
          <mxGeometry x="750" y="-574" width="50" height="25" as="geometry" />
        </mxCell>
        <mxCell id="lr_rn5ziXYZGtuX2gbdQ-21" value="alcpt_proclamation" style="whiteSpace=wrap;html=1;rounded=0;shadow=0;fontFamily=Verdana;fontSize=8;strokeWidth=1;" vertex="1" parent="1">
          <mxGeometry x="600" y="-601.75" width="90" height="15.5" as="geometry" />
        </mxCell>
        <mxCell id="lr_rn5ziXYZGtuX2gbdQ-24" value="" style="edgeStyle=orthogonalEdgeStyle;shape=link;rounded=0;orthogonalLoop=1;jettySize=auto;html=1;endArrow=none;endFill=0;exitX=1;exitY=0.5;exitDx=0;exitDy=0;" edge="1" parent="1" source="lr_rn5ziXYZGtuX2gbdQ-31" target="lr_rn5ziXYZGtuX2gbdQ-21">
          <mxGeometry relative="1" as="geometry">
            <mxPoint x="579.9425287356321" y="-604.9655172413793" as="sourcePoint" />
          </mxGeometry>
        </mxCell>
        <mxCell id="lr_rn5ziXYZGtuX2gbdQ-23" value="" style="endArrow=none;html=1;entryX=0;entryY=0.5;entryDx=0;entryDy=0;exitX=0.75;exitY=0;exitDx=0;exitDy=0;edgeStyle=orthogonalEdgeStyle;" edge="1" parent="1" source="lr_rn5ziXYZGtuX2gbdQ-9" target="lr_rn5ziXYZGtuX2gbdQ-31">
          <mxGeometry width="50" height="50" relative="1" as="geometry">
            <mxPoint x="510" y="-530" as="sourcePoint" />
            <mxPoint x="530" y="-605" as="targetPoint" />
          </mxGeometry>
        </mxCell>
        <mxCell id="lr_rn5ziXYZGtuX2gbdQ-25" value="&lt;font style=&quot;font-size: 8px&quot;&gt;create&lt;/font&gt;" style="rhombus;whiteSpace=wrap;html=1;rounded=0;shadow=0;labelBackgroundColor=none;strokeWidth=1;fontFamily=Verdana;fontSize=8;align=center;" vertex="1" parent="1">
          <mxGeometry x="530" y="-510" width="40" height="30" as="geometry" />
        </mxCell>
        <mxCell id="lr_rn5ziXYZGtuX2gbdQ-26" value="" style="endArrow=none;html=1;entryX=0;entryY=0.5;entryDx=0;entryDy=0;exitX=0.91;exitY=0.953;exitDx=0;exitDy=0;exitPerimeter=0;" edge="1" parent="1" source="lr_rn5ziXYZGtuX2gbdQ-9" target="lr_rn5ziXYZGtuX2gbdQ-25">
          <mxGeometry width="50" height="50" relative="1" as="geometry">
            <mxPoint x="510" y="-530" as="sourcePoint" />
            <mxPoint x="540" y="-555" as="targetPoint" />
            <Array as="points">
              <mxPoint x="494" y="-495" />
            </Array>
          </mxGeometry>
        </mxCell>
        <mxCell id="lr_rn5ziXYZGtuX2gbdQ-28" value="audio_file" style="whiteSpace=wrap;html=1;rounded=0;shadow=0;fontFamily=Verdana;fontSize=8;strokeWidth=1;" vertex="1" parent="1">
          <mxGeometry x="610" y="-502.75" width="50" height="15.5" as="geometry" />
        </mxCell>
        <mxCell id="lr_rn5ziXYZGtuX2gbdQ-29" value="" style="edgeStyle=orthogonalEdgeStyle;shape=link;rounded=0;orthogonalLoop=1;jettySize=auto;html=1;endArrow=none;endFill=0;" edge="1" parent="1" source="lr_rn5ziXYZGtuX2gbdQ-25" target="lr_rn5ziXYZGtuX2gbdQ-28">
          <mxGeometry relative="1" as="geometry">
            <mxPoint x="580" y="-495" as="sourcePoint" />
            <mxPoint x="670" y="-495" as="targetPoint" />
          </mxGeometry>
        </mxCell>
        <mxCell id="lr_rn5ziXYZGtuX2gbdQ-30" value="&lt;font style=&quot;font-size: 8px&quot;&gt;create&lt;/font&gt;" style="rhombus;whiteSpace=wrap;html=1;rounded=0;shadow=0;labelBackgroundColor=none;strokeWidth=1;fontFamily=Verdana;fontSize=8;align=center;" vertex="1" parent="1">
          <mxGeometry x="530" y="-576.5" width="40" height="30" as="geometry" />
        </mxCell>
        <mxCell id="lr_rn5ziXYZGtuX2gbdQ-31" value="&lt;font style=&quot;font-size: 8px&quot;&gt;create&lt;/font&gt;" style="rhombus;whiteSpace=wrap;html=1;rounded=0;shadow=0;labelBackgroundColor=none;strokeWidth=1;fontFamily=Verdana;fontSize=8;align=center;" vertex="1" parent="1">
          <mxGeometry x="530" y="-609" width="40" height="30" as="geometry" />
        </mxCell>
        <mxCell id="lr_rn5ziXYZGtuX2gbdQ-32" value="&lt;font style=&quot;font-size: 8px&quot;&gt;choose&lt;/font&gt;" style="rhombus;whiteSpace=wrap;html=1;rounded=0;shadow=0;labelBackgroundColor=none;strokeWidth=1;fontFamily=Verdana;fontSize=8;align=center;" vertex="1" parent="1">
          <mxGeometry x="530" y="-544" width="40" height="30" as="geometry" />
        </mxCell>
        <mxCell id="lr_rn5ziXYZGtuX2gbdQ-37" value="" style="edgeStyle=orthogonalEdgeStyle;shape=link;rounded=0;orthogonalLoop=1;jettySize=auto;html=1;endArrow=none;endFill=0;" edge="1" parent="1" source="lr_rn5ziXYZGtuX2gbdQ-34" target="lr_rn5ziXYZGtuX2gbdQ-35">
          <mxGeometry relative="1" as="geometry" />
        </mxCell>
        <mxCell id="lr_rn5ziXYZGtuX2gbdQ-34" value="&lt;font style=&quot;font-size: 8px&quot;&gt;create&lt;/font&gt;" style="rhombus;whiteSpace=wrap;html=1;rounded=0;shadow=0;labelBackgroundColor=none;strokeWidth=1;fontFamily=Verdana;fontSize=8;align=center;" vertex="1" parent="1">
          <mxGeometry x="520" y="-480" width="40" height="30" as="geometry" />
        </mxCell>
        <mxCell id="lr_rn5ziXYZGtuX2gbdQ-47" value="" style="edgeStyle=orthogonalEdgeStyle;rounded=0;orthogonalLoop=1;jettySize=auto;html=1;endArrow=none;endFill=0;shape=link;" edge="1" parent="1" source="lr_rn5ziXYZGtuX2gbdQ-35" target="lr_rn5ziXYZGtuX2gbdQ-44">
          <mxGeometry relative="1" as="geometry" />
        </mxCell>
        <mxCell id="lr_rn5ziXYZGtuX2gbdQ-35" value="alcpt_report" style="whiteSpace=wrap;html=1;rounded=0;shadow=0;fontFamily=Verdana;fontSize=8;strokeWidth=1;" vertex="1" parent="1">
          <mxGeometry x="610" y="-472.75" width="60" height="15.5" as="geometry" />
        </mxCell>
        <mxCell id="lr_rn5ziXYZGtuX2gbdQ-36" value="" style="endArrow=none;html=1;edgeStyle=orthogonalEdgeStyle;exitX=0.75;exitY=1;exitDx=0;exitDy=0;" edge="1" parent="1" source="lr_rn5ziXYZGtuX2gbdQ-9">
          <mxGeometry width="50" height="50" relative="1" as="geometry">
            <mxPoint x="494" y="-518" as="sourcePoint" />
            <mxPoint x="520" y="-462" as="targetPoint" />
            <Array as="points">
              <mxPoint x="483" y="-462" />
            </Array>
          </mxGeometry>
        </mxCell>
        <mxCell id="lr_rn5ziXYZGtuX2gbdQ-38" value="" style="endArrow=none;html=1;entryX=0;entryY=0.5;entryDx=0;entryDy=0;exitX=0.604;exitY=1.016;exitDx=0;exitDy=0;exitPerimeter=0;" edge="1" parent="1" source="lr_rn5ziXYZGtuX2gbdQ-9" target="lr_rn5ziXYZGtuX2gbdQ-39">
          <mxGeometry width="50" height="50" relative="1" as="geometry">
            <mxPoint x="483" y="-518" as="sourcePoint" />
            <mxPoint x="490" y="-460" as="targetPoint" />
            <Array as="points">
              <mxPoint x="472" y="-433" />
            </Array>
          </mxGeometry>
        </mxCell>
        <mxCell id="lr_rn5ziXYZGtuX2gbdQ-43" value="" style="edgeStyle=orthogonalEdgeStyle;shape=link;rounded=0;orthogonalLoop=1;jettySize=auto;html=1;endArrow=none;endFill=0;" edge="1" parent="1" source="lr_rn5ziXYZGtuX2gbdQ-39" target="lr_rn5ziXYZGtuX2gbdQ-40">
          <mxGeometry relative="1" as="geometry" />
        </mxCell>
        <mxCell id="lr_rn5ziXYZGtuX2gbdQ-39" value="&lt;font style=&quot;font-size: 8px&quot;&gt;create&lt;/font&gt;" style="rhombus;whiteSpace=wrap;html=1;rounded=0;shadow=0;labelBackgroundColor=none;strokeWidth=1;fontFamily=Verdana;fontSize=8;align=center;" vertex="1" parent="1">
          <mxGeometry x="520" y="-447" width="40" height="30" as="geometry" />
        </mxCell>
        <mxCell id="lr_rn5ziXYZGtuX2gbdQ-48" value="" style="edgeStyle=orthogonalEdgeStyle;rounded=0;orthogonalLoop=1;jettySize=auto;html=1;endArrow=none;endFill=0;" edge="1" parent="1" source="lr_rn5ziXYZGtuX2gbdQ-40" target="lr_rn5ziXYZGtuX2gbdQ-44">
          <mxGeometry relative="1" as="geometry">
            <Array as="points">
              <mxPoint x="730" y="-432" />
            </Array>
          </mxGeometry>
        </mxCell>
        <mxCell id="lr_rn5ziXYZGtuX2gbdQ-40" value="alcpt_reply" style="whiteSpace=wrap;html=1;rounded=0;shadow=0;fontFamily=Verdana;fontSize=8;strokeWidth=1;" vertex="1" parent="1">
          <mxGeometry x="600" y="-440" width="60" height="15.5" as="geometry" />
        </mxCell>
        <mxCell id="lr_rn5ziXYZGtuX2gbdQ-44" value="&lt;font style=&quot;font-size: 8px&quot;&gt;belong&lt;br&gt;&lt;/font&gt;" style="rhombus;whiteSpace=wrap;html=1;rounded=0;shadow=0;labelBackgroundColor=none;strokeWidth=1;fontFamily=Verdana;fontSize=8;align=center;" vertex="1" parent="1">
          <mxGeometry x="710" y="-477.88" width="40" height="25.75" as="geometry" />
        </mxCell>
        <mxCell id="lr_rn5ziXYZGtuX2gbdQ-49" value="&lt;font style=&quot;font-size: 8px&quot;&gt;choose&lt;/font&gt;" style="rhombus;whiteSpace=wrap;html=1;rounded=0;shadow=0;labelBackgroundColor=none;strokeWidth=1;fontFamily=Verdana;fontSize=8;align=center;" vertex="1" parent="1">
          <mxGeometry x="350" y="-606.5" width="40" height="30" as="geometry" />
        </mxCell>
        <mxCell id="lr_rn5ziXYZGtuX2gbdQ-52" value="" style="edgeStyle=orthogonalEdgeStyle;rounded=0;orthogonalLoop=1;jettySize=auto;html=1;endArrow=none;endFill=0;shape=link;" edge="1" parent="1" source="lr_rn5ziXYZGtuX2gbdQ-50" target="lr_rn5ziXYZGtuX2gbdQ-49">
          <mxGeometry relative="1" as="geometry" />
        </mxCell>
        <mxCell id="lr_rn5ziXYZGtuX2gbdQ-50" value="alcpt_question" style="whiteSpace=wrap;html=1;rounded=0;shadow=0;fontFamily=Verdana;fontSize=8;strokeWidth=1;" vertex="1" parent="1">
          <mxGeometry x="250" y="-599.25" width="70" height="15.5" as="geometry" />
        </mxCell>
        <mxCell id="lr_rn5ziXYZGtuX2gbdQ-51" value="" style="endArrow=none;html=1;entryX=1;entryY=0.5;entryDx=0;entryDy=0;exitX=0.25;exitY=0;exitDx=0;exitDy=0;" edge="1" parent="1" source="lr_rn5ziXYZGtuX2gbdQ-9" target="lr_rn5ziXYZGtuX2gbdQ-49">
          <mxGeometry width="50" height="50" relative="1" as="geometry">
            <mxPoint x="492.5" y="-530" as="sourcePoint" />
            <mxPoint x="540" y="-584" as="targetPoint" />
            <Array as="points">
              <mxPoint x="448" y="-591" />
            </Array>
          </mxGeometry>
        </mxCell>
        <mxCell id="lr_rn5ziXYZGtuX2gbdQ-60" value="" style="edgeStyle=orthogonalEdgeStyle;rounded=0;orthogonalLoop=1;jettySize=auto;html=1;endArrow=none;endFill=0;" edge="1" parent="1" source="lr_rn5ziXYZGtuX2gbdQ-53" target="lr_rn5ziXYZGtuX2gbdQ-54">
          <mxGeometry relative="1" as="geometry" />
        </mxCell>
        <mxCell id="lr_rn5ziXYZGtuX2gbdQ-53" value="&lt;font style=&quot;font-size: 8px&quot;&gt;include&lt;/font&gt;" style="rhombus;whiteSpace=wrap;html=1;rounded=0;shadow=0;labelBackgroundColor=none;strokeWidth=1;fontFamily=Verdana;fontSize=8;align=center;" vertex="1" parent="1">
          <mxGeometry x="530" y="-642.75" width="40" height="30" as="geometry" />
        </mxCell>
        <mxCell id="lr_rn5ziXYZGtuX2gbdQ-59" value="" style="edgeStyle=orthogonalEdgeStyle;rounded=0;orthogonalLoop=1;jettySize=auto;html=1;endArrow=none;endFill=0;entryX=0;entryY=0.5;entryDx=0;entryDy=0;" edge="1" parent="1" source="lr_rn5ziXYZGtuX2gbdQ-54" target="lr_rn5ziXYZGtuX2gbdQ-55">
          <mxGeometry relative="1" as="geometry" />
        </mxCell>
        <mxCell id="lr_rn5ziXYZGtuX2gbdQ-54" value="alcpt_student" style="whiteSpace=wrap;html=1;rounded=0;shadow=0;fontFamily=Verdana;fontSize=8;strokeWidth=1;" vertex="1" parent="1">
          <mxGeometry x="585" y="-635.5" width="90" height="15.5" as="geometry" />
        </mxCell>
        <mxCell id="lr_rn5ziXYZGtuX2gbdQ-61" value="" style="edgeStyle=orthogonalEdgeStyle;rounded=0;orthogonalLoop=1;jettySize=auto;html=1;endArrow=none;endFill=0;shape=link;" edge="1" parent="1" source="lr_rn5ziXYZGtuX2gbdQ-55" target="lr_rn5ziXYZGtuX2gbdQ-56">
          <mxGeometry relative="1" as="geometry" />
        </mxCell>
        <mxCell id="lr_rn5ziXYZGtuX2gbdQ-55" value="&lt;font style=&quot;font-size: 8px&quot;&gt;belong&lt;br&gt;&lt;/font&gt;" style="rhombus;whiteSpace=wrap;html=1;rounded=0;shadow=0;labelBackgroundColor=none;strokeWidth=1;fontFamily=Verdana;fontSize=8;align=center;" vertex="1" parent="1">
          <mxGeometry x="700" y="-640.62" width="40" height="25.75" as="geometry" />
        </mxCell>
        <mxCell id="lr_rn5ziXYZGtuX2gbdQ-56" value="alcpt_department" style="whiteSpace=wrap;html=1;rounded=0;shadow=0;fontFamily=Verdana;fontSize=8;strokeWidth=1;" vertex="1" parent="1">
          <mxGeometry x="760" y="-635.49" width="90" height="15.5" as="geometry" />
        </mxCell>
        <mxCell id="lr_rn5ziXYZGtuX2gbdQ-62" value="alcpt_squadron" style="whiteSpace=wrap;html=1;rounded=0;shadow=0;fontFamily=Verdana;fontSize=8;strokeWidth=1;" vertex="1" parent="1">
          <mxGeometry x="760" y="-664.87" width="80" height="15.5" as="geometry" />
        </mxCell>
        <mxCell id="lr_rn5ziXYZGtuX2gbdQ-65" value="" style="edgeStyle=orthogonalEdgeStyle;rounded=0;orthogonalLoop=1;jettySize=auto;html=1;endArrow=none;endFill=0;" edge="1" parent="1" source="lr_rn5ziXYZGtuX2gbdQ-63" target="lr_rn5ziXYZGtuX2gbdQ-54">
          <mxGeometry relative="1" as="geometry" />
        </mxCell>
        <mxCell id="lr_rn5ziXYZGtuX2gbdQ-66" value="" style="edgeStyle=orthogonalEdgeStyle;rounded=0;orthogonalLoop=1;jettySize=auto;html=1;endArrow=none;endFill=0;shape=link;" edge="1" parent="1" source="lr_rn5ziXYZGtuX2gbdQ-63" target="lr_rn5ziXYZGtuX2gbdQ-62">
          <mxGeometry relative="1" as="geometry" />
        </mxCell>
        <mxCell id="lr_rn5ziXYZGtuX2gbdQ-63" value="&lt;font style=&quot;font-size: 8px&quot;&gt;belong&lt;br&gt;&lt;/font&gt;" style="rhombus;whiteSpace=wrap;html=1;rounded=0;shadow=0;labelBackgroundColor=none;strokeWidth=1;fontFamily=Verdana;fontSize=8;align=center;" vertex="1" parent="1">
          <mxGeometry x="700" y="-670" width="40" height="25.75" as="geometry" />
        </mxCell>
        <mxCell id="lr_rn5ziXYZGtuX2gbdQ-74" value="" style="endArrow=none;html=1;exitX=0.595;exitY=-0.05;exitDx=0;exitDy=0;exitPerimeter=0;entryX=0;entryY=0.5;entryDx=0;entryDy=0;" edge="1" parent="1" source="lr_rn5ziXYZGtuX2gbdQ-9" target="lr_rn5ziXYZGtuX2gbdQ-53">
          <mxGeometry width="50" height="50" relative="1" as="geometry">
            <mxPoint x="520" y="-550" as="sourcePoint" />
            <mxPoint x="570" y="-600" as="targetPoint" />
            <Array as="points">
              <mxPoint x="472" y="-628" />
            </Array>
          </mxGeometry>
        </mxCell>
        <mxCell id="lr_rn5ziXYZGtuX2gbdQ-75" value="alcpt_answer" style="whiteSpace=wrap;html=1;rounded=0;shadow=0;fontFamily=Verdana;fontSize=8;strokeWidth=1;" vertex="1" parent="1">
          <mxGeometry x="80" y="-599.25" width="70" height="15.5" as="geometry" />
        </mxCell>
        <mxCell id="lr_rn5ziXYZGtuX2gbdQ-76" value="&lt;font style=&quot;font-size: 8px&quot;&gt;belong&lt;br&gt;&lt;/font&gt;" style="rhombus;whiteSpace=wrap;html=1;rounded=0;shadow=0;labelBackgroundColor=none;strokeWidth=1;fontFamily=Verdana;fontSize=8;align=center;" vertex="1" parent="1">
          <mxGeometry x="180" y="-604.38" width="40" height="25.75" as="geometry" />
        </mxCell>
        <mxCell id="lr_rn5ziXYZGtuX2gbdQ-84" value="" style="endArrow=none;html=1;entryX=0;entryY=0.5;entryDx=0;entryDy=0;shape=link;" edge="1" parent="1" target="lr_rn5ziXYZGtuX2gbdQ-50">
          <mxGeometry width="50" height="50" relative="1" as="geometry">
            <mxPoint x="220" y="-591" as="sourcePoint" />
            <mxPoint x="350" y="-610" as="targetPoint" />
          </mxGeometry>
        </mxCell>
        <mxCell id="lr_rn5ziXYZGtuX2gbdQ-85" value="" style="endArrow=none;html=1;exitX=1;exitY=0.5;exitDx=0;exitDy=0;entryX=0;entryY=0.5;entryDx=0;entryDy=0;shape=link;" edge="1" parent="1" source="lr_rn5ziXYZGtuX2gbdQ-75" target="lr_rn5ziXYZGtuX2gbdQ-76">
          <mxGeometry width="50" height="50" relative="1" as="geometry">
            <mxPoint x="149.9999999999999" y="-591.8449999999999" as="sourcePoint" />
            <mxPoint x="179.9999999999999" y="-591.84" as="targetPoint" />
          </mxGeometry>
        </mxCell>
        <mxCell id="lr_rn5ziXYZGtuX2gbdQ-86" value="&lt;font style=&quot;font-size: 8px&quot;&gt;belong&lt;br&gt;&lt;/font&gt;" style="rhombus;whiteSpace=wrap;html=1;rounded=0;shadow=0;labelBackgroundColor=none;strokeWidth=1;fontFamily=Verdana;fontSize=8;align=center;" vertex="1" parent="1">
          <mxGeometry x="180" y="-632.75" width="40" height="25.75" as="geometry" />
        </mxCell>
        <mxCell id="lr_rn5ziXYZGtuX2gbdQ-87" value="alcpt_choice" style="whiteSpace=wrap;html=1;rounded=0;shadow=0;fontFamily=Verdana;fontSize=8;strokeWidth=1;" vertex="1" parent="1">
          <mxGeometry x="80" y="-628.25" width="70" height="15.5" as="geometry" />
        </mxCell>
        <mxCell id="lr_rn5ziXYZGtuX2gbdQ-88" value="" style="endArrow=none;html=1;shape=link;" edge="1" parent="1" source="lr_rn5ziXYZGtuX2gbdQ-87" target="lr_rn5ziXYZGtuX2gbdQ-86">
          <mxGeometry width="50" height="50" relative="1" as="geometry">
            <mxPoint x="149.9999999999999" y="-619.99" as="sourcePoint" />
            <mxPoint x="179.9999999999999" y="-619.9949999999999" as="targetPoint" />
          </mxGeometry>
        </mxCell>
        <mxCell id="lr_rn5ziXYZGtuX2gbdQ-92" value="" style="endArrow=none;html=1;exitX=0.151;exitY=0.014;exitDx=0;exitDy=0;exitPerimeter=0;entryX=1;entryY=0.5;entryDx=0;entryDy=0;" edge="1" parent="1" source="lr_rn5ziXYZGtuX2gbdQ-50" target="lr_rn5ziXYZGtuX2gbdQ-86">
          <mxGeometry width="50" height="50" relative="1" as="geometry">
            <mxPoint x="291.64999999999986" y="-599.25" as="sourcePoint" />
            <mxPoint x="350" y="-685.9" as="targetPoint" />
            <Array as="points">
              <mxPoint x="261" y="-620" />
            </Array>
          </mxGeometry>
        </mxCell>
        <mxCell id="lr_rn5ziXYZGtuX2gbdQ-93" value="alcpt_answersheet" style="whiteSpace=wrap;html=1;rounded=0;shadow=0;fontFamily=Verdana;fontSize=8;strokeWidth=1;" vertex="1" parent="1">
          <mxGeometry x="229.98" y="-569.25" width="90" height="15.5" as="geometry" />
        </mxCell>
        <mxCell id="lr_rn5ziXYZGtuX2gbdQ-94" value="&lt;font style=&quot;font-size: 8px&quot;&gt;write&lt;br&gt;&lt;/font&gt;" style="rhombus;whiteSpace=wrap;html=1;rounded=0;shadow=0;labelBackgroundColor=none;strokeWidth=1;fontFamily=Verdana;fontSize=8;align=center;" vertex="1" parent="1">
          <mxGeometry x="160" y="-730" width="40" height="25.75" as="geometry" />
        </mxCell>
        <mxCell id="lr_rn5ziXYZGtuX2gbdQ-95" value="&lt;font style=&quot;font-size: 8px&quot;&gt;belong&lt;br&gt;&lt;/font&gt;" style="rhombus;whiteSpace=wrap;html=1;rounded=0;shadow=0;labelBackgroundColor=none;strokeWidth=1;fontFamily=Verdana;fontSize=8;align=center;" vertex="1" parent="1">
          <mxGeometry x="139.98" y="-571.87" width="40" height="21.87" as="geometry" />
        </mxCell>
        <mxCell id="lr_rn5ziXYZGtuX2gbdQ-98" value="" style="endArrow=none;html=1;entryX=0;entryY=0.5;entryDx=0;entryDy=0;shape=link;exitX=1;exitY=0.5;exitDx=0;exitDy=0;" edge="1" parent="1" source="lr_rn5ziXYZGtuX2gbdQ-95" target="lr_rn5ziXYZGtuX2gbdQ-93">
          <mxGeometry width="50" height="50" relative="1" as="geometry">
            <mxPoint x="189.97999999999988" y="-558.83" as="sourcePoint" />
            <mxPoint x="219.97999999999988" y="-559.33" as="targetPoint" />
          </mxGeometry>
        </mxCell>
        <mxCell id="lr_rn5ziXYZGtuX2gbdQ-99" value="&lt;font style=&quot;font-size: 8px&quot;&gt;write&lt;/font&gt;" style="rhombus;whiteSpace=wrap;html=1;rounded=0;shadow=0;labelBackgroundColor=none;strokeWidth=1;fontFamily=Verdana;fontSize=8;align=center;" vertex="1" parent="1">
          <mxGeometry x="350" y="-574" width="40" height="30" as="geometry" />
        </mxCell>
        <mxCell id="lr_rn5ziXYZGtuX2gbdQ-102" value="" style="edgeStyle=orthogonalEdgeStyle;rounded=0;orthogonalLoop=1;jettySize=auto;html=1;endArrow=none;endFill=0;shape=link;" edge="1" parent="1">
          <mxGeometry relative="1" as="geometry">
            <mxPoint x="319.98" y="-559.24" as="sourcePoint" />
            <mxPoint x="350.0029885057471" y="-559.3372413793104" as="targetPoint" />
          </mxGeometry>
        </mxCell>
        <mxCell id="lr_rn5ziXYZGtuX2gbdQ-103" value="" style="endArrow=none;html=1;entryX=1;entryY=0.5;entryDx=0;entryDy=0;" edge="1" parent="1" target="lr_rn5ziXYZGtuX2gbdQ-99">
          <mxGeometry width="50" height="50" relative="1" as="geometry">
            <mxPoint x="440" y="-540" as="sourcePoint" />
            <mxPoint x="540" y="-617.75" as="targetPoint" />
            <Array as="points">
              <mxPoint x="440" y="-559" />
              <mxPoint x="410" y="-559" />
            </Array>
          </mxGeometry>
        </mxCell>
        <mxCell id="lr_rn5ziXYZGtuX2gbdQ-109" value="" style="endArrow=none;html=1;exitX=0;exitY=0.5;exitDx=0;exitDy=0;shape=link;entryX=0.383;entryY=0.993;entryDx=0;entryDy=0;entryPerimeter=0;" edge="1" parent="1" source="lr_rn5ziXYZGtuX2gbdQ-95" target="lr_rn5ziXYZGtuX2gbdQ-75">
          <mxGeometry width="50" height="50" relative="1" as="geometry">
            <mxPoint x="139.98000000000013" y="-558.9950000000001" as="sourcePoint" />
            <mxPoint x="115" y="-582" as="targetPoint" />
            <Array as="points">
              <mxPoint x="107" y="-560" />
            </Array>
          </mxGeometry>
        </mxCell>
        <mxCell id="lr_rn5ziXYZGtuX2gbdQ-120" value="" style="edgeStyle=entityRelationEdgeStyle;rounded=0;orthogonalLoop=1;jettySize=auto;html=1;endArrow=none;endFill=0;shape=link;" edge="1" parent="1" source="lr_rn5ziXYZGtuX2gbdQ-110" target="lr_rn5ziXYZGtuX2gbdQ-119">
          <mxGeometry relative="1" as="geometry" />
        </mxCell>
        <mxCell id="lr_rn5ziXYZGtuX2gbdQ-110" value="alcpt_exam_testeelist" style="whiteSpace=wrap;html=1;rounded=0;shadow=0;fontFamily=Verdana;fontSize=8;strokeWidth=1;" vertex="1" parent="1">
          <mxGeometry x="224.98" y="-521.75" width="100" height="15.5" as="geometry" />
        </mxCell>
        <mxCell id="lr_rn5ziXYZGtuX2gbdQ-111" value="&lt;font style=&quot;font-size: 8px&quot;&gt;made up&lt;/font&gt;" style="rhombus;whiteSpace=wrap;html=1;rounded=0;shadow=0;labelBackgroundColor=none;strokeWidth=1;fontFamily=Verdana;fontSize=8;align=center;" vertex="1" parent="1">
          <mxGeometry x="350" y="-527.13" width="50" height="24.38" as="geometry" />
        </mxCell>
        <mxCell id="lr_rn5ziXYZGtuX2gbdQ-116" value="" style="edgeStyle=orthogonalEdgeStyle;rounded=0;orthogonalLoop=1;jettySize=auto;html=1;endArrow=none;endFill=0;shape=link;" edge="1" parent="1">
          <mxGeometry relative="1" as="geometry">
            <mxPoint x="324.9799999999999" y="-514.278275862069" as="sourcePoint" />
            <mxPoint x="355.0029885057471" y="-514.3472413793104" as="targetPoint" />
          </mxGeometry>
        </mxCell>
        <mxCell id="lr_rn5ziXYZGtuX2gbdQ-117" value="alcpt_exam" style="whiteSpace=wrap;html=1;rounded=0;shadow=0;fontFamily=Verdana;fontSize=8;strokeWidth=1;" vertex="1" parent="1">
          <mxGeometry x="40" y="-522.63" width="60" height="15.5" as="geometry" />
        </mxCell>
        <mxCell id="lr_rn5ziXYZGtuX2gbdQ-118" value="" style="endArrow=none;html=1;entryX=1;entryY=0.5;entryDx=0;entryDy=0;" edge="1" parent="1" target="lr_rn5ziXYZGtuX2gbdQ-111">
          <mxGeometry width="50" height="50" relative="1" as="geometry">
            <mxPoint x="430" y="-530" as="sourcePoint" />
            <mxPoint x="400" y="-549" as="targetPoint" />
            <Array as="points">
              <mxPoint x="400" y="-530" />
            </Array>
          </mxGeometry>
        </mxCell>
        <mxCell id="lr_rn5ziXYZGtuX2gbdQ-121" value="" style="edgeStyle=entityRelationEdgeStyle;rounded=0;orthogonalLoop=1;jettySize=auto;html=1;endArrow=none;endFill=0;shape=link;" edge="1" parent="1" source="lr_rn5ziXYZGtuX2gbdQ-119" target="lr_rn5ziXYZGtuX2gbdQ-117">
          <mxGeometry relative="1" as="geometry" />
        </mxCell>
        <mxCell id="lr_rn5ziXYZGtuX2gbdQ-119" value="&lt;font style=&quot;font-size: 8px&quot;&gt;have&lt;br&gt;&lt;/font&gt;" style="rhombus;whiteSpace=wrap;html=1;rounded=0;shadow=0;labelBackgroundColor=none;strokeWidth=1;fontFamily=Verdana;fontSize=8;align=center;" vertex="1" parent="1">
          <mxGeometry x="150" y="-524.3200000000002" width="40" height="18.88" as="geometry" />
        </mxCell>
        <mxCell id="lr_rn5ziXYZGtuX2gbdQ-122" value="&lt;font style=&quot;font-size: 8px&quot;&gt;belong&lt;br&gt;&lt;/font&gt;" style="rhombus;whiteSpace=wrap;html=1;rounded=0;shadow=0;labelBackgroundColor=none;strokeWidth=1;fontFamily=Verdana;fontSize=8;align=center;" vertex="1" parent="1">
          <mxGeometry x="139.98" y="-546.5" width="40" height="21.87" as="geometry" />
        </mxCell>
        <mxCell id="lr_rn5ziXYZGtuX2gbdQ-123" value="" style="endArrow=none;html=1;exitX=1;exitY=0.5;exitDx=0;exitDy=0;shape=link;entryX=0.5;entryY=1;entryDx=0;entryDy=0;" edge="1" parent="1" source="lr_rn5ziXYZGtuX2gbdQ-122" target="lr_rn5ziXYZGtuX2gbdQ-93">
          <mxGeometry width="50" height="50" relative="1" as="geometry">
            <mxPoint x="149.98000000000013" y="-550.935" as="sourcePoint" />
            <mxPoint x="116.80999999999983" y="-573.8584999999999" as="targetPoint" />
            <Array as="points">
              <mxPoint x="275" y="-536" />
            </Array>
          </mxGeometry>
        </mxCell>
        <mxCell id="lr_rn5ziXYZGtuX2gbdQ-124" value="" style="endArrow=none;html=1;entryX=0.5;entryY=0;entryDx=0;entryDy=0;exitX=0;exitY=0.5;exitDx=0;exitDy=0;" edge="1" parent="1" source="lr_rn5ziXYZGtuX2gbdQ-122" target="lr_rn5ziXYZGtuX2gbdQ-117">
          <mxGeometry width="50" height="50" relative="1" as="geometry">
            <mxPoint x="100" y="-544" as="sourcePoint" />
            <mxPoint x="70" y="-528.9399999999999" as="targetPoint" />
            <Array as="points">
              <mxPoint x="70" y="-536" />
            </Array>
          </mxGeometry>
        </mxCell>
      </root>
    </mxGraphModel>
  </diagram>
</mxfile>
